# MagicaVoxel @ Ephtracy

# group
o 

# material
mtllib trampoline.mtl
usemtl palette

# normals
vn -1 0 0
vn 1 0 0
vn 0 0 1
vn 0 0 -1
vn 0 -1 0
vn 0 1 0

# texcoords
vt 0.251953 0.5
vt 0.611328 0.5
vt 0.958984 0.5
vt 0.990234 0.5

# verts
v 0.6 2 -1.2
v 0.6 2 -1.9
v 0.6 2.1 -1.2
v 0.6 2.1 -1.9
v 0.7 2 -1
v 0.7 2 -1.2
v 0.7 2 -1.9
v 0.7 2 -2.1
v 0.7 2.1 -1
v 0.7 2.1 -1.2
v 0.7 2.1 -1.9
v 0.7 2.1 -2.1
v 0.7 2.6 -1.2
v 0.7 2.6 -1.9
v 0.7 2.7 -1.2
v 0.7 2.7 -1.9
v 0.8 2 -0.9
v 0.8 2 -1
v 0.8 2 -2.1
v 0.8 2 -2.2
v 0.8 2.1 -0.9
v 0.8 2.1 -1
v 0.8 2.1 -2.1
v 0.8 2.1 -2.2
v 0.8 2.6 -1
v 0.8 2.6 -1.2
v 0.8 2.6 -1.9
v 0.8 2.6 -2.1
v 0.8 2.7 -1
v 0.8 2.7 -1.2
v 0.8 2.7 -1.9
v 0.8 2.7 -2.1
v 0.9 2 -0.8
v 0.9 2 -0.9
v 0.9 2 -2.2
v 0.9 2 -2.3
v 0.9 2.1 -0.8
v 0.9 2.1 -0.9
v 0.9 2.1 -2.2
v 0.9 2.1 -2.3
v 0.9 2.6 -0.9
v 0.9 2.6 -1
v 0.9 2.6 -2.1
v 0.9 2.6 -2.2
v 0.9 2.7 -0.9
v 0.9 2.7 -1
v 0.9 2.7 -2.1
v 0.9 2.7 -2.2
v 1 2 -0.7
v 1 2 -0.8
v 1 2 -2.3
v 1 2 -2.4
v 1 2.1 -0.7
v 1 2.1 -0.8
v 1 2.1 -2.3
v 1 2.1 -2.4
v 1 2.6 -0.8
v 1 2.6 -0.9
v 1 2.6 -2.2
v 1 2.6 -2.3
v 1 2.7 -0.8
v 1 2.7 -0.9
v 1 2.7 -2.2
v 1 2.7 -2.3
v 1.1 2 -0.6
v 1.1 2 -0.7
v 1.1 2 -2.4
v 1.1 2 -2.5
v 1.1 2.1 -0.6
v 1.1 2.1 -0.7
v 1.1 2.1 -2.4
v 1.1 2.1 -2.5
v 1.1 2.6 -0.7
v 1.1 2.6 -0.8
v 1.1 2.6 -2.3
v 1.1 2.6 -2.4
v 1.1 2.7 -0.7
v 1.1 2.7 -0.8
v 1.1 2.7 -2.3
v 1.1 2.7 -2.4
v 1.3 2 -0.5
v 1.3 2 -0.6
v 1.3 2 -2.5
v 1.3 2 -2.6
v 1.3 2.1 -0.5
v 1.3 2.1 -0.6
v 1.3 2.1 -2.5
v 1.3 2.1 -2.6
v 1.3 2.6 -0.6
v 1.3 2.6 -0.7
v 1.3 2.6 -2.4
v 1.3 2.6 -2.5
v 1.3 2.7 -0.6
v 1.3 2.7 -0.7
v 1.3 2.7 -2.4
v 1.3 2.7 -2.5
v 1.5 2.2 -1.4
v 1.5 2.2 -1.7
v 1.5 2.3 -1.4
v 1.5 2.3 -1.7
v 1.5 2.4 -1.4
v 1.5 2.4 -1.7
v 1.5 2.5 -1.4
v 1.5 2.5 -1.7
v 1.6 2.1 -1.5
v 1.6 2.1 -1.6
v 1.6 2.2 -1.5
v 1.6 2.2 -1.6
v 1.6 2.3 -1.5
v 1.6 2.3 -1.6
v 1.6 2.4 -1.5
v 1.6 2.4 -1.6
v 1.6 2.5 -1.5
v 1.6 2.5 -1.6
v 1.6 2.6 -1.5
v 1.6 2.6 -1.6
v 1.7 2.1 -1.5
v 1.7 2.1 -1.6
v 1.7 2.2 -1.5
v 1.7 2.2 -1.6
v 1.7 2.3 -1.5
v 1.7 2.3 -1.6
v 1.7 2.4 -1.5
v 1.7 2.4 -1.6
v 1.7 2.5 -1.5
v 1.7 2.5 -1.6
v 1.7 2.6 -1.5
v 1.7 2.6 -1.6
v 1.8 2.2 -1.4
v 1.8 2.2 -1.7
v 1.8 2.3 -1.4
v 1.8 2.3 -1.7
v 1.8 2.4 -1.4
v 1.8 2.4 -1.7
v 1.8 2.5 -1.4
v 1.8 2.5 -1.7
v 2 2 -0.5
v 2 2 -0.6
v 2 2 -2.5
v 2 2 -2.6
v 2 2.1 -0.5
v 2 2.1 -0.6
v 2 2.1 -2.5
v 2 2.1 -2.6
v 2 2.6 -0.6
v 2 2.6 -0.7
v 2 2.6 -2.4
v 2 2.6 -2.5
v 2 2.7 -0.6
v 2 2.7 -0.7
v 2 2.7 -2.4
v 2 2.7 -2.5
v 2.2 2 -0.6
v 2.2 2 -0.7
v 2.2 2 -2.4
v 2.2 2 -2.5
v 2.2 2.1 -0.6
v 2.2 2.1 -0.7
v 2.2 2.1 -2.4
v 2.2 2.1 -2.5
v 2.2 2.6 -0.7
v 2.2 2.6 -0.8
v 2.2 2.6 -2.3
v 2.2 2.6 -2.4
v 2.2 2.7 -0.7
v 2.2 2.7 -0.8
v 2.2 2.7 -2.3
v 2.2 2.7 -2.4
v 2.3 2 -0.7
v 2.3 2 -0.8
v 2.3 2 -2.3
v 2.3 2 -2.4
v 2.3 2.1 -0.7
v 2.3 2.1 -0.8
v 2.3 2.1 -2.3
v 2.3 2.1 -2.4
v 2.3 2.6 -0.8
v 2.3 2.6 -0.9
v 2.3 2.6 -2.2
v 2.3 2.6 -2.3
v 2.3 2.7 -0.8
v 2.3 2.7 -0.9
v 2.3 2.7 -2.2
v 2.3 2.7 -2.3
v 2.4 2 -0.8
v 2.4 2 -0.9
v 2.4 2 -2.2
v 2.4 2 -2.3
v 2.4 2.1 -0.8
v 2.4 2.1 -0.9
v 2.4 2.1 -2.2
v 2.4 2.1 -2.3
v 2.4 2.6 -0.9
v 2.4 2.6 -1
v 2.4 2.6 -2.1
v 2.4 2.6 -2.2
v 2.4 2.7 -0.9
v 2.4 2.7 -1
v 2.4 2.7 -2.1
v 2.4 2.7 -2.2
v 2.5 2 -0.9
v 2.5 2 -1
v 2.5 2 -2.1
v 2.5 2 -2.2
v 2.5 2.1 -0.9
v 2.5 2.1 -1
v 2.5 2.1 -2.1
v 2.5 2.1 -2.2
v 2.5 2.6 -1
v 2.5 2.6 -1.2
v 2.5 2.6 -1.9
v 2.5 2.6 -2.1
v 2.5 2.7 -1
v 2.5 2.7 -1.2
v 2.5 2.7 -1.9
v 2.5 2.7 -2.1
v 2.6 2 -1
v 2.6 2 -1.2
v 2.6 2 -1.9
v 2.6 2 -2.1
v 2.6 2.1 -1
v 2.6 2.1 -1.2
v 2.6 2.1 -1.9
v 2.6 2.1 -2.1
v 2.6 2.6 -1.2
v 2.6 2.6 -1.9
v 2.6 2.7 -1.2
v 2.6 2.7 -1.9
v 2.7 2 -1.2
v 2.7 2 -1.9
v 2.7 2.1 -1.2
v 2.7 2.1 -1.9
v 1.3 2 -0.5
v 1.3 2.1 -0.5
v 2 2 -0.5
v 2 2.1 -0.5
v 1.1 2 -0.6
v 1.1 2.1 -0.6
v 1.3 2 -0.6
v 1.3 2.1 -0.6
v 1.3 2.6 -0.6
v 1.3 2.7 -0.6
v 1.9 2.6 -0.6
v 1.9 2.7 -0.6
v 2 2 -0.6
v 2 2.1 -0.6
v 2 2.6 -0.6
v 2 2.7 -0.6
v 2.2 2 -0.6
v 2.2 2.1 -0.6
v 1 2 -0.7
v 1 2.1 -0.7
v 1.1 2 -0.7
v 1.1 2.1 -0.7
v 1.1 2.6 -0.7
v 1.1 2.7 -0.7
v 1.2 2.6 -0.7
v 1.2 2.7 -0.7
v 1.3 2.6 -0.7
v 1.3 2.7 -0.7
v 2 2.6 -0.7
v 2 2.7 -0.7
v 2.1 2.6 -0.7
v 2.1 2.7 -0.7
v 2.2 2 -0.7
v 2.2 2.1 -0.7
v 2.2 2.6 -0.7
v 2.2 2.7 -0.7
v 2.3 2 -0.7
v 2.3 2.1 -0.7
v 0.9 2 -0.8
v 0.9 2.1 -0.8
v 1 2 -0.8
v 1 2.1 -0.8
v 1 2.6 -0.8
v 1 2.7 -0.8
v 1.1 2.6 -0.8
v 1.1 2.7 -0.8
v 2.2 2.6 -0.8
v 2.2 2.7 -0.8
v 2.3 2 -0.8
v 2.3 2.1 -0.8
v 2.3 2.6 -0.8
v 2.3 2.7 -0.8
v 2.4 2 -0.8
v 2.4 2.1 -0.8
v 0.8 2 -0.9
v 0.8 2.1 -0.9
v 0.9 2 -0.9
v 0.9 2.1 -0.9
v 0.9 2.6 -0.9
v 0.9 2.7 -0.9
v 1 2.6 -0.9
v 1 2.7 -0.9
v 2.3 2.6 -0.9
v 2.3 2.7 -0.9
v 2.4 2 -0.9
v 2.4 2.1 -0.9
v 2.4 2.6 -0.9
v 2.4 2.7 -0.9
v 2.5 2 -0.9
v 2.5 2.1 -0.9
v 0.7 2 -1
v 0.7 2.1 -1
v 0.8 2 -1
v 0.8 2.1 -1
v 0.8 2.6 -1
v 0.8 2.7 -1
v 0.9 2.6 -1
v 0.9 2.7 -1
v 2.4 2.6 -1
v 2.4 2.7 -1
v 2.5 2 -1
v 2.5 2.1 -1
v 2.5 2.6 -1
v 2.5 2.7 -1
v 2.6 2 -1
v 2.6 2.1 -1
v 0.6 2 -1.2
v 0.6 2.1 -1.2
v 0.7 2 -1.2
v 0.7 2.1 -1.2
v 0.7 2.6 -1.2
v 0.7 2.7 -1.2
v 0.8 2.6 -1.2
v 0.8 2.7 -1.2
v 2.5 2.6 -1.2
v 2.5 2.7 -1.2
v 2.6 2 -1.2
v 2.6 2.1 -1.2
v 2.6 2.6 -1.2
v 2.6 2.7 -1.2
v 2.7 2 -1.2
v 2.7 2.1 -1.2
v 1.5 2.2 -1.4
v 1.5 2.3 -1.4
v 1.5 2.4 -1.4
v 1.5 2.5 -1.4
v 1.8 2.2 -1.4
v 1.8 2.3 -1.4
v 1.8 2.4 -1.4
v 1.8 2.5 -1.4
v 1.6 2.1 -1.5
v 1.6 2.2 -1.5
v 1.6 2.3 -1.5
v 1.6 2.4 -1.5
v 1.6 2.5 -1.5
v 1.6 2.6 -1.5
v 1.7 2.1 -1.5
v 1.7 2.2 -1.5
v 1.7 2.3 -1.5
v 1.7 2.4 -1.5
v 1.7 2.5 -1.5
v 1.7 2.6 -1.5
v 1.6 2.1 -1.6
v 1.6 2.2 -1.6
v 1.6 2.3 -1.6
v 1.6 2.4 -1.6
v 1.6 2.5 -1.6
v 1.6 2.6 -1.6
v 1.7 2.1 -1.6
v 1.7 2.2 -1.6
v 1.7 2.3 -1.6
v 1.7 2.4 -1.6
v 1.7 2.5 -1.6
v 1.7 2.6 -1.6
v 1.5 2.2 -1.7
v 1.5 2.3 -1.7
v 1.5 2.4 -1.7
v 1.5 2.5 -1.7
v 1.8 2.2 -1.7
v 1.8 2.3 -1.7
v 1.8 2.4 -1.7
v 1.8 2.5 -1.7
v 0.6 2 -1.9
v 0.6 2.1 -1.9
v 0.7 2 -1.9
v 0.7 2.1 -1.9
v 0.7 2.6 -1.9
v 0.7 2.7 -1.9
v 0.8 2.6 -1.9
v 0.8 2.7 -1.9
v 2.5 2.6 -1.9
v 2.5 2.7 -1.9
v 2.6 2 -1.9
v 2.6 2.1 -1.9
v 2.6 2.6 -1.9
v 2.6 2.7 -1.9
v 2.7 2 -1.9
v 2.7 2.1 -1.9
v 0.7 2 -2.1
v 0.7 2.1 -2.1
v 0.8 2 -2.1
v 0.8 2.1 -2.1
v 0.8 2.6 -2.1
v 0.8 2.7 -2.1
v 0.9 2.6 -2.1
v 0.9 2.7 -2.1
v 2.4 2.6 -2.1
v 2.4 2.7 -2.1
v 2.5 2 -2.1
v 2.5 2.1 -2.1
v 2.5 2.6 -2.1
v 2.5 2.7 -2.1
v 2.6 2 -2.1
v 2.6 2.1 -2.1
v 0.8 2 -2.2
v 0.8 2.1 -2.2
v 0.9 2 -2.2
v 0.9 2.1 -2.2
v 0.9 2.6 -2.2
v 0.9 2.7 -2.2
v 1 2.6 -2.2
v 1 2.7 -2.2
v 2.3 2.6 -2.2
v 2.3 2.7 -2.2
v 2.4 2 -2.2
v 2.4 2.1 -2.2
v 2.4 2.6 -2.2
v 2.4 2.7 -2.2
v 2.5 2 -2.2
v 2.5 2.1 -2.2
v 0.9 2 -2.3
v 0.9 2.1 -2.3
v 1 2 -2.3
v 1 2.1 -2.3
v 1 2.6 -2.3
v 1 2.7 -2.3
v 1.1 2.6 -2.3
v 1.1 2.7 -2.3
v 2.2 2.6 -2.3
v 2.2 2.7 -2.3
v 2.3 2 -2.3
v 2.3 2.1 -2.3
v 2.3 2.6 -2.3
v 2.3 2.7 -2.3
v 2.4 2 -2.3
v 2.4 2.1 -2.3
v 1 2 -2.4
v 1 2.1 -2.4
v 1.1 2 -2.4
v 1.1 2.1 -2.4
v 1.1 2.6 -2.4
v 1.1 2.7 -2.4
v 1.2 2.6 -2.4
v 1.2 2.7 -2.4
v 1.3 2.6 -2.4
v 1.3 2.7 -2.4
v 2 2.6 -2.4
v 2 2.7 -2.4
v 2.1 2.6 -2.4
v 2.1 2.7 -2.4
v 2.2 2 -2.4
v 2.2 2.1 -2.4
v 2.2 2.6 -2.4
v 2.2 2.7 -2.4
v 2.3 2 -2.4
v 2.3 2.1 -2.4
v 1.1 2 -2.5
v 1.1 2.1 -2.5
v 1.3 2 -2.5
v 1.3 2.1 -2.5
v 1.3 2.6 -2.5
v 1.3 2.7 -2.5
v 1.4 2.6 -2.5
v 1.4 2.7 -2.5
v 2 2 -2.5
v 2 2.1 -2.5
v 2 2.6 -2.5
v 2 2.7 -2.5
v 2.2 2 -2.5
v 2.2 2.1 -2.5
v 1.3 2 -2.6
v 1.3 2.1 -2.6
v 2 2 -2.6
v 2 2.1 -2.6
v 1.3 2 -0.5
v 2 2 -0.5
v 1.1 2 -0.6
v 1.3 2 -0.6
v 2 2 -0.6
v 2.2 2 -0.6
v 1 2 -0.7
v 1.1 2 -0.7
v 2.2 2 -0.7
v 2.3 2 -0.7
v 0.9 2 -0.8
v 1 2 -0.8
v 2.3 2 -0.8
v 2.4 2 -0.8
v 0.8 2 -0.9
v 0.9 2 -0.9
v 2.4 2 -0.9
v 2.5 2 -0.9
v 0.7 2 -1
v 0.8 2 -1
v 2.5 2 -1
v 2.6 2 -1
v 0.6 2 -1.2
v 0.7 2 -1.2
v 2.6 2 -1.2
v 2.7 2 -1.2
v 0.6 2 -1.9
v 0.7 2 -1.9
v 2.6 2 -1.9
v 2.7 2 -1.9
v 0.7 2 -2.1
v 0.8 2 -2.1
v 2.5 2 -2.1
v 2.6 2 -2.1
v 0.8 2 -2.2
v 0.9 2 -2.2
v 2.4 2 -2.2
v 2.5 2 -2.2
v 0.9 2 -2.3
v 1 2 -2.3
v 2.3 2 -2.3
v 2.4 2 -2.3
v 1 2 -2.4
v 1.1 2 -2.4
v 2.2 2 -2.4
v 2.3 2 -2.4
v 1.1 2 -2.5
v 1.3 2 -2.5
v 2 2 -2.5
v 2.2 2 -2.5
v 1.3 2 -2.6
v 2 2 -2.6
v 1.5 2.2 -1.4
v 1.8 2.2 -1.4
v 1.6 2.2 -1.5
v 1.7 2.2 -1.5
v 1.6 2.2 -1.6
v 1.7 2.2 -1.6
v 1.5 2.2 -1.7
v 1.8 2.2 -1.7
v 1.5 2.4 -1.4
v 1.8 2.4 -1.4
v 1.6 2.4 -1.5
v 1.7 2.4 -1.5
v 1.6 2.4 -1.6
v 1.7 2.4 -1.6
v 1.5 2.4 -1.7
v 1.8 2.4 -1.7
v 1.3 2.6 -0.6
v 1.9 2.6 -0.6
v 2 2.6 -0.6
v 1.1 2.6 -0.7
v 1.2 2.6 -0.7
v 1.3 2.6 -0.7
v 2 2.6 -0.7
v 2.1 2.6 -0.7
v 2.2 2.6 -0.7
v 1 2.6 -0.8
v 1.1 2.6 -0.8
v 2.2 2.6 -0.8
v 2.3 2.6 -0.8
v 0.9 2.6 -0.9
v 1 2.6 -0.9
v 2.3 2.6 -0.9
v 2.4 2.6 -0.9
v 0.8 2.6 -1
v 0.9 2.6 -1
v 2.4 2.6 -1
v 2.5 2.6 -1
v 0.7 2.6 -1.2
v 0.8 2.6 -1.2
v 2.5 2.6 -1.2
v 2.6 2.6 -1.2
v 1.6 2.6 -1.5
v 1.7 2.6 -1.5
v 1.9 2.6 -1.5
v 2 2.6 -1.5
v 2.1 2.6 -1.5
v 2.2 2.6 -1.5
v 2.3 2.6 -1.5
v 1 2.6 -1.6
v 1.1 2.6 -1.6
v 1.2 2.6 -1.6
v 1.3 2.6 -1.6
v 1.4 2.6 -1.6
v 1.6 2.6 -1.6
v 1.7 2.6 -1.6
v 0.7 2.6 -1.9
v 0.8 2.6 -1.9
v 2.5 2.6 -1.9
v 2.6 2.6 -1.9
v 0.8 2.6 -2.1
v 0.9 2.6 -2.1
v 2.4 2.6 -2.1
v 2.5 2.6 -2.1
v 0.9 2.6 -2.2
v 1 2.6 -2.2
v 2.3 2.6 -2.2
v 2.4 2.6 -2.2
v 1 2.6 -2.3
v 1.1 2.6 -2.3
v 2.2 2.6 -2.3
v 2.3 2.6 -2.3
v 1.1 2.6 -2.4
v 1.2 2.6 -2.4
v 1.3 2.6 -2.4
v 2 2.6 -2.4
v 2.1 2.6 -2.4
v 2.2 2.6 -2.4
v 1.3 2.6 -2.5
v 1.4 2.6 -2.5
v 2 2.6 -2.5
v 1.3 2.1 -0.5
v 2 2.1 -0.5
v 1.1 2.1 -0.6
v 1.3 2.1 -0.6
v 2 2.1 -0.6
v 2.2 2.1 -0.6
v 1 2.1 -0.7
v 1.1 2.1 -0.7
v 2.2 2.1 -0.7
v 2.3 2.1 -0.7
v 0.9 2.1 -0.8
v 1 2.1 -0.8
v 2.3 2.1 -0.8
v 2.4 2.1 -0.8
v 0.8 2.1 -0.9
v 0.9 2.1 -0.9
v 2.4 2.1 -0.9
v 2.5 2.1 -0.9
v 0.7 2.1 -1
v 0.8 2.1 -1
v 2.5 2.1 -1
v 2.6 2.1 -1
v 0.6 2.1 -1.2
v 0.7 2.1 -1.2
v 2.6 2.1 -1.2
v 2.7 2.1 -1.2
v 1.6 2.1 -1.5
v 1.7 2.1 -1.5
v 1.6 2.1 -1.6
v 1.7 2.1 -1.6
v 0.6 2.1 -1.9
v 0.7 2.1 -1.9
v 2.6 2.1 -1.9
v 2.7 2.1 -1.9
v 0.7 2.1 -2.1
v 0.8 2.1 -2.1
v 2.5 2.1 -2.1
v 2.6 2.1 -2.1
v 0.8 2.1 -2.2
v 0.9 2.1 -2.2
v 2.4 2.1 -2.2
v 2.5 2.1 -2.2
v 0.9 2.1 -2.3
v 1 2.1 -2.3
v 2.3 2.1 -2.3
v 2.4 2.1 -2.3
v 1 2.1 -2.4
v 1.1 2.1 -2.4
v 2.2 2.1 -2.4
v 2.3 2.1 -2.4
v 1.1 2.1 -2.5
v 1.3 2.1 -2.5
v 2 2.1 -2.5
v 2.2 2.1 -2.5
v 1.3 2.1 -2.6
v 2 2.1 -2.6
v 1.5 2.3 -1.4
v 1.8 2.3 -1.4
v 1.6 2.3 -1.5
v 1.7 2.3 -1.5
v 1.6 2.3 -1.6
v 1.7 2.3 -1.6
v 1.5 2.3 -1.7
v 1.8 2.3 -1.7
v 1.5 2.5 -1.4
v 1.8 2.5 -1.4
v 1.6 2.5 -1.5
v 1.7 2.5 -1.5
v 1.6 2.5 -1.6
v 1.7 2.5 -1.6
v 1.5 2.5 -1.7
v 1.8 2.5 -1.7
v 1.3 2.7 -0.6
v 1.9 2.7 -0.6
v 2 2.7 -0.6
v 1.1 2.7 -0.7
v 1.2 2.7 -0.7
v 1.3 2.7 -0.7
v 2 2.7 -0.7
v 2.1 2.7 -0.7
v 2.2 2.7 -0.7
v 1 2.7 -0.8
v 1.1 2.7 -0.8
v 2.2 2.7 -0.8
v 2.3 2.7 -0.8
v 0.9 2.7 -0.9
v 1 2.7 -0.9
v 2.3 2.7 -0.9
v 2.4 2.7 -0.9
v 0.8 2.7 -1
v 0.9 2.7 -1
v 2.4 2.7 -1
v 2.5 2.7 -1
v 0.7 2.7 -1.2
v 0.8 2.7 -1.2
v 2.5 2.7 -1.2
v 2.6 2.7 -1.2
v 1.9 2.7 -1.5
v 2 2.7 -1.5
v 2.1 2.7 -1.5
v 2.2 2.7 -1.5
v 2.3 2.7 -1.5
v 1 2.7 -1.6
v 1.1 2.7 -1.6
v 1.2 2.7 -1.6
v 1.3 2.7 -1.6
v 1.4 2.7 -1.6
v 0.7 2.7 -1.9
v 0.8 2.7 -1.9
v 2.5 2.7 -1.9
v 2.6 2.7 -1.9
v 0.8 2.7 -2.1
v 0.9 2.7 -2.1
v 2.4 2.7 -2.1
v 2.5 2.7 -2.1
v 0.9 2.7 -2.2
v 1 2.7 -2.2
v 2.3 2.7 -2.2
v 2.4 2.7 -2.2
v 1 2.7 -2.3
v 1.1 2.7 -2.3
v 2.2 2.7 -2.3
v 2.3 2.7 -2.3
v 1.1 2.7 -2.4
v 1.2 2.7 -2.4
v 1.3 2.7 -2.4
v 2 2.7 -2.4
v 2.1 2.7 -2.4
v 2.2 2.7 -2.4
v 1.3 2.7 -2.5
v 1.4 2.7 -2.5
v 2 2.7 -2.5

# faces
f 3/4/1 2/4/1 1/4/1
f 4/4/1 2/4/1 3/4/1
f 9/4/1 6/4/1 5/4/1
f 10/4/1 6/4/1 9/4/1
f 11/4/1 8/4/1 7/4/1
f 12/4/1 8/4/1 11/4/1
f 15/1/1 14/1/1 13/1/1
f 16/1/1 14/1/1 15/1/1
f 21/4/1 18/4/1 17/4/1
f 22/4/1 18/4/1 21/4/1
f 23/4/1 20/4/1 19/4/1
f 24/4/1 20/4/1 23/4/1
f 29/1/1 26/1/1 25/1/1
f 30/1/1 26/1/1 29/1/1
f 31/1/1 28/1/1 27/1/1
f 32/1/1 28/1/1 31/1/1
f 37/4/1 34/4/1 33/4/1
f 38/4/1 34/4/1 37/4/1
f 39/4/1 36/4/1 35/4/1
f 40/4/1 36/4/1 39/4/1
f 45/1/1 42/1/1 41/1/1
f 46/1/1 42/1/1 45/1/1
f 47/1/1 44/1/1 43/1/1
f 48/1/1 44/1/1 47/1/1
f 53/4/1 50/4/1 49/4/1
f 54/4/1 50/4/1 53/4/1
f 55/4/1 52/4/1 51/4/1
f 56/4/1 52/4/1 55/4/1
f 61/3/1 58/3/1 57/3/1
f 62/3/1 58/3/1 61/3/1
f 63/1/1 60/1/1 59/1/1
f 64/1/1 60/1/1 63/1/1
f 69/4/1 66/4/1 65/4/1
f 70/4/1 66/4/1 69/4/1
f 71/4/1 68/4/1 67/4/1
f 72/4/1 68/4/1 71/4/1
f 77/1/1 74/1/1 73/1/1
f 78/1/1 74/1/1 77/1/1
f 79/3/1 76/3/1 75/3/1
f 80/3/1 76/3/1 79/3/1
f 85/4/1 82/4/1 81/4/1
f 86/4/1 82/4/1 85/4/1
f 87/4/1 84/4/1 83/4/1
f 88/4/1 84/4/1 87/4/1
f 93/1/1 90/1/1 89/1/1
f 94/1/1 90/1/1 93/1/1
f 95/3/1 92/3/1 91/3/1
f 96/3/1 92/3/1 95/3/1
f 99/2/1 98/2/1 97/2/1
f 100/2/1 98/2/1 99/2/1
f 103/2/1 102/2/1 101/2/1
f 104/2/1 102/2/1 103/2/1
f 107/2/1 106/2/1 105/2/1
f 108/2/1 106/2/1 107/2/1
f 111/2/1 110/2/1 109/2/1
f 112/2/1 110/2/1 111/2/1
f 115/2/1 114/2/1 113/2/1
f 116/2/1 114/2/1 115/2/1
f 117/2/2 118/2/2 119/2/2
f 119/2/2 118/2/2 120/2/2
f 121/2/2 122/2/2 123/2/2
f 123/2/2 122/2/2 124/2/2
f 125/2/2 126/2/2 127/2/2
f 127/2/2 126/2/2 128/2/2
f 129/2/2 130/2/2 131/2/2
f 131/2/2 130/2/2 132/2/2
f 133/2/2 134/2/2 135/2/2
f 135/2/2 134/2/2 136/2/2
f 137/4/2 138/4/2 141/4/2
f 141/4/2 138/4/2 142/4/2
f 139/4/2 140/4/2 143/4/2
f 143/4/2 140/4/2 144/4/2
f 145/3/2 146/3/2 149/3/2
f 149/3/2 146/3/2 150/3/2
f 147/1/2 148/1/2 151/1/2
f 151/1/2 148/1/2 152/1/2
f 153/4/2 154/4/2 157/4/2
f 157/4/2 154/4/2 158/4/2
f 155/4/2 156/4/2 159/4/2
f 159/4/2 156/4/2 160/4/2
f 161/3/2 162/3/2 165/3/2
f 165/3/2 162/3/2 166/3/2
f 163/1/2 164/1/2 167/1/2
f 167/1/2 164/1/2 168/1/2
f 169/4/2 170/4/2 173/4/2
f 173/4/2 170/4/2 174/4/2
f 171/4/2 172/4/2 175/4/2
f 175/4/2 172/4/2 176/4/2
f 177/1/2 178/1/2 181/1/2
f 181/1/2 178/1/2 182/1/2
f 179/3/2 180/3/2 183/3/2
f 183/3/2 180/3/2 184/3/2
f 185/4/2 186/4/2 189/4/2
f 189/4/2 186/4/2 190/4/2
f 187/4/2 188/4/2 191/4/2
f 191/4/2 188/4/2 192/4/2
f 193/1/2 194/1/2 197/1/2
f 197/1/2 194/1/2 198/1/2
f 195/1/2 196/1/2 199/1/2
f 199/1/2 196/1/2 200/1/2
f 201/4/2 202/4/2 205/4/2
f 205/4/2 202/4/2 206/4/2
f 203/4/2 204/4/2 207/4/2
f 207/4/2 204/4/2 208/4/2
f 209/1/2 210/1/2 213/1/2
f 213/1/2 210/1/2 214/1/2
f 211/1/2 212/1/2 215/1/2
f 215/1/2 212/1/2 216/1/2
f 217/4/2 218/4/2 221/4/2
f 221/4/2 218/4/2 222/4/2
f 219/4/2 220/4/2 223/4/2
f 223/4/2 220/4/2 224/4/2
f 225/1/2 226/1/2 227/1/2
f 227/1/2 226/1/2 228/1/2
f 229/4/2 230/4/2 231/4/2
f 231/4/2 230/4/2 232/4/2
f 235/4/3 234/4/3 233/4/3
f 236/4/3 234/4/3 235/4/3
f 239/4/3 238/4/3 237/4/3
f 240/4/3 238/4/3 239/4/3
f 243/1/3 242/1/3 241/1/3
f 244/1/3 242/1/3 243/1/3
f 247/3/3 244/3/3 243/3/3
f 248/3/3 244/3/3 247/3/3
f 249/4/3 246/4/3 245/4/3
f 250/4/3 246/4/3 249/4/3
f 253/4/3 252/4/3 251/4/3
f 254/4/3 252/4/3 253/4/3
f 257/1/3 256/1/3 255/1/3
f 258/1/3 256/1/3 257/1/3
f 259/3/3 258/3/3 257/3/3
f 260/3/3 258/3/3 259/3/3
f 263/1/3 262/1/3 261/1/3
f 264/1/3 262/1/3 263/1/3
f 267/3/3 264/3/3 263/3/3
f 268/3/3 264/3/3 267/3/3
f 269/4/3 266/4/3 265/4/3
f 270/4/3 266/4/3 269/4/3
f 273/4/3 272/4/3 271/4/3
f 274/4/3 272/4/3 273/4/3
f 277/3/3 276/3/3 275/3/3
f 278/3/3 276/3/3 277/3/3
f 283/1/3 280/1/3 279/1/3
f 284/1/3 280/1/3 283/1/3
f 285/4/3 282/4/3 281/4/3
f 286/4/3 282/4/3 285/4/3
f 289/4/3 288/4/3 287/4/3
f 290/4/3 288/4/3 289/4/3
f 293/1/3 292/1/3 291/1/3
f 294/1/3 292/1/3 293/1/3
f 299/1/3 296/1/3 295/1/3
f 300/1/3 296/1/3 299/1/3
f 301/4/3 298/4/3 297/4/3
f 302/4/3 298/4/3 301/4/3
f 305/4/3 304/4/3 303/4/3
f 306/4/3 304/4/3 305/4/3
f 309/1/3 308/1/3 307/1/3
f 310/1/3 308/1/3 309/1/3
f 315/1/3 312/1/3 311/1/3
f 316/1/3 312/1/3 315/1/3
f 317/4/3 314/4/3 313/4/3
f 318/4/3 314/4/3 317/4/3
f 321/4/3 320/4/3 319/4/3
f 322/4/3 320/4/3 321/4/3
f 325/1/3 324/1/3 323/1/3
f 326/1/3 324/1/3 325/1/3
f 331/1/3 328/1/3 327/1/3
f 332/1/3 328/1/3 331/1/3
f 333/4/3 330/4/3 329/4/3
f 334/4/3 330/4/3 333/4/3
f 339/2/3 336/2/3 335/2/3
f 340/2/3 336/2/3 339/2/3
f 341/2/3 338/2/3 337/2/3
f 342/2/3 338/2/3 341/2/3
f 349/2/3 344/2/3 343/2/3
f 350/2/3 344/2/3 349/2/3
f 351/2/3 346/2/3 345/2/3
f 352/2/3 346/2/3 351/2/3
f 353/2/3 348/2/3 347/2/3
f 354/2/3 348/2/3 353/2/3
f 355/2/4 356/2/4 361/2/4
f 361/2/4 356/2/4 362/2/4
f 357/2/4 358/2/4 363/2/4
f 363/2/4 358/2/4 364/2/4
f 359/2/4 360/2/4 365/2/4
f 365/2/4 360/2/4 366/2/4
f 367/2/4 368/2/4 371/2/4
f 371/2/4 368/2/4 372/2/4
f 369/2/4 370/2/4 373/2/4
f 373/2/4 370/2/4 374/2/4
f 375/4/4 376/4/4 377/4/4
f 377/4/4 376/4/4 378/4/4
f 379/1/4 380/1/4 381/1/4
f 381/1/4 380/1/4 382/1/4
f 383/1/4 384/1/4 387/1/4
f 387/1/4 384/1/4 388/1/4
f 385/4/4 386/4/4 389/4/4
f 389/4/4 386/4/4 390/4/4
f 391/4/4 392/4/4 393/4/4
f 393/4/4 392/4/4 394/4/4
f 395/1/4 396/1/4 397/1/4
f 397/1/4 396/1/4 398/1/4
f 399/1/4 400/1/4 403/1/4
f 403/1/4 400/1/4 404/1/4
f 401/4/4 402/4/4 405/4/4
f 405/4/4 402/4/4 406/4/4
f 407/4/4 408/4/4 409/4/4
f 409/4/4 408/4/4 410/4/4
f 411/1/4 412/1/4 413/1/4
f 413/1/4 412/1/4 414/1/4
f 415/1/4 416/1/4 419/1/4
f 419/1/4 416/1/4 420/1/4
f 417/4/4 418/4/4 421/4/4
f 421/4/4 418/4/4 422/4/4
f 423/4/4 424/4/4 425/4/4
f 425/4/4 424/4/4 426/4/4
f 427/1/4 428/1/4 429/1/4
f 429/1/4 428/1/4 430/1/4
f 431/3/4 432/3/4 435/3/4
f 435/3/4 432/3/4 436/3/4
f 433/4/4 434/4/4 437/4/4
f 437/4/4 434/4/4 438/4/4
f 439/4/4 440/4/4 441/4/4
f 441/4/4 440/4/4 442/4/4
f 443/3/4 444/3/4 445/3/4
f 445/3/4 444/3/4 446/3/4
f 445/1/4 446/1/4 447/1/4
f 447/1/4 446/1/4 448/1/4
f 449/3/4 450/3/4 451/3/4
f 451/3/4 450/3/4 452/3/4
f 451/1/4 452/1/4 455/1/4
f 455/1/4 452/1/4 456/1/4
f 453/4/4 454/4/4 457/4/4
f 457/4/4 454/4/4 458/4/4
f 459/4/4 460/4/4 461/4/4
f 461/4/4 460/4/4 462/4/4
f 463/3/4 464/3/4 465/3/4
f 465/3/4 464/3/4 466/3/4
f 465/1/4 466/1/4 469/1/4
f 469/1/4 466/1/4 470/1/4
f 467/4/4 468/4/4 471/4/4
f 471/4/4 468/4/4 472/4/4
f 473/4/4 474/4/4 475/4/4
f 475/4/4 474/4/4 476/4/4
f 480/4/5 478/4/5 477/4/5
f 481/4/5 478/4/5 480/4/5
f 484/4/5 480/4/5 479/4/5
f 484/4/5 482/4/5 481/4/5
f 484/4/5 481/4/5 480/4/5
f 485/4/5 482/4/5 484/4/5
f 488/4/5 484/4/5 483/4/5
f 488/4/5 486/4/5 485/4/5
f 488/4/5 485/4/5 484/4/5
f 489/4/5 486/4/5 488/4/5
f 492/4/5 488/4/5 487/4/5
f 492/4/5 490/4/5 489/4/5
f 492/4/5 489/4/5 488/4/5
f 493/4/5 490/4/5 492/4/5
f 496/4/5 492/4/5 491/4/5
f 496/4/5 494/4/5 493/4/5
f 496/4/5 493/4/5 492/4/5
f 497/4/5 494/4/5 496/4/5
f 500/4/5 496/4/5 495/4/5
f 500/4/5 498/4/5 497/4/5
f 500/4/5 497/4/5 496/4/5
f 501/4/5 498/4/5 500/4/5
f 503/4/5 500/4/5 499/4/5
f 503/4/5 502/4/5 501/4/5
f 503/4/5 501/4/5 500/4/5
f 504/4/5 502/4/5 503/4/5
f 505/4/5 502/4/5 504/4/5
f 506/4/5 502/4/5 505/4/5
f 507/4/5 505/4/5 504/4/5
f 508/4/5 505/4/5 507/4/5
f 509/4/5 505/4/5 508/4/5
f 510/4/5 505/4/5 509/4/5
f 511/4/5 509/4/5 508/4/5
f 512/4/5 509/4/5 511/4/5
f 513/4/5 509/4/5 512/4/5
f 514/4/5 509/4/5 513/4/5
f 515/4/5 513/4/5 512/4/5
f 516/4/5 513/4/5 515/4/5
f 517/4/5 513/4/5 516/4/5
f 518/4/5 513/4/5 517/4/5
f 519/4/5 517/4/5 516/4/5
f 520/4/5 517/4/5 519/4/5
f 521/4/5 517/4/5 520/4/5
f 522/4/5 517/4/5 521/4/5
f 523/4/5 521/4/5 520/4/5
f 524/4/5 521/4/5 523/4/5
f 525/4/5 521/4/5 524/4/5
f 526/4/5 521/4/5 525/4/5
f 527/4/5 525/4/5 524/4/5
f 528/4/5 525/4/5 527/4/5
f 531/2/5 530/2/5 529/2/5
f 532/2/5 530/2/5 531/2/5
f 533/2/5 531/2/5 529/2/5
f 534/2/5 530/2/5 532/2/5
f 535/2/5 533/2/5 529/2/5
f 535/2/5 534/2/5 533/2/5
f 536/2/5 530/2/5 534/2/5
f 536/2/5 534/2/5 535/2/5
f 539/2/5 538/2/5 537/2/5
f 540/2/5 538/2/5 539/2/5
f 541/2/5 539/2/5 537/2/5
f 542/2/5 538/2/5 540/2/5
f 543/2/5 541/2/5 537/2/5
f 543/2/5 542/2/5 541/2/5
f 544/2/5 538/2/5 542/2/5
f 544/2/5 542/2/5 543/2/5
f 550/1/5 546/1/5 545/1/5
f 551/3/5 547/3/5 546/3/5
f 555/1/5 549/1/5 548/1/5
f 556/3/5 553/3/5 552/3/5
f 559/3/5 555/3/5 554/3/5
f 560/1/5 557/1/5 556/1/5
f 563/1/5 559/1/5 558/1/5
f 564/1/5 561/1/5 560/1/5
f 567/1/5 563/1/5 562/1/5
f 568/1/5 565/1/5 564/1/5
f 570/1/5 546/1/5 550/1/5
f 571/1/5 546/1/5 570/1/5
f 572/3/5 551/3/5 546/3/5
f 572/1/5 546/1/5 571/1/5
f 573/1/5 552/1/5 551/1/5
f 573/3/5 551/3/5 572/3/5
f 574/3/5 556/3/5 552/3/5
f 574/1/5 552/1/5 573/1/5
f 575/1/5 569/1/5 568/1/5
f 575/3/5 556/3/5 574/3/5
f 575/1/5 560/1/5 556/1/5
f 575/1/5 564/1/5 560/1/5
f 575/1/5 568/1/5 564/1/5
f 576/1/5 569/1/5 575/1/5
f 577/1/5 567/1/5 566/1/5
f 577/3/5 555/3/5 559/3/5
f 577/1/5 559/1/5 563/1/5
f 577/1/5 563/1/5 567/1/5
f 578/1/5 549/1/5 555/1/5
f 578/3/5 555/3/5 577/3/5
f 579/3/5 550/3/5 549/3/5
f 579/1/5 549/1/5 578/1/5
f 580/1/5 570/1/5 550/1/5
f 580/3/5 550/3/5 579/3/5
f 581/1/5 570/1/5 580/1/5
f 582/1/5 570/1/5 581/1/5
f 583/1/5 572/1/5 571/1/5
f 583/1/5 573/1/5 572/1/5
f 584/1/5 578/1/5 577/1/5
f 584/1/5 577/1/5 566/1/5
f 585/1/5 578/1/5 584/1/5
f 586/1/5 569/1/5 576/1/5
f 587/1/5 569/1/5 586/1/5
f 588/1/5 578/1/5 585/1/5
f 589/1/5 578/1/5 588/1/5
f 590/1/5 586/1/5 576/1/5
f 591/1/5 586/1/5 590/1/5
f 592/1/5 578/1/5 589/1/5
f 593/1/5 578/1/5 592/1/5
f 594/3/5 576/3/5 575/3/5
f 594/1/5 590/1/5 576/1/5
f 595/1/5 590/1/5 594/1/5
f 596/1/5 578/1/5 593/1/5
f 597/3/5 579/3/5 578/3/5
f 597/1/5 578/1/5 596/1/5
f 598/1/5 575/1/5 574/1/5
f 598/3/5 594/3/5 575/3/5
f 599/3/5 594/3/5 598/3/5
f 600/3/5 579/3/5 597/3/5
f 601/1/5 580/1/5 579/1/5
f 601/3/5 579/3/5 600/3/5
f 602/3/5 581/3/5 580/3/5
f 602/1/5 580/1/5 601/1/5
f 603/1/5 583/1/5 582/1/5
f 603/3/5 574/3/5 573/3/5
f 603/1/5 582/1/5 581/1/5
f 603/1/5 573/1/5 583/1/5
f 604/1/5 598/1/5 574/1/5
f 604/3/5 574/3/5 603/3/5
f 605/1/5 598/1/5 604/1/5
f 606/3/5 581/3/5 602/3/5
f 607/1/5 603/1/5 581/1/5
f 607/3/5 581/3/5 606/3/5
f 608/1/5 603/1/5 607/1/5
f 609/4/6 610/4/6 612/4/6
f 612/4/6 610/4/6 613/4/6
f 611/4/6 612/4/6 616/4/6
f 613/4/6 614/4/6 616/4/6
f 612/4/6 613/4/6 616/4/6
f 616/4/6 614/4/6 617/4/6
f 615/4/6 616/4/6 620/4/6
f 617/4/6 618/4/6 620/4/6
f 616/4/6 617/4/6 620/4/6
f 620/4/6 618/4/6 621/4/6
f 619/4/6 620/4/6 624/4/6
f 621/4/6 622/4/6 624/4/6
f 620/4/6 621/4/6 624/4/6
f 624/4/6 622/4/6 625/4/6
f 623/4/6 624/4/6 628/4/6
f 625/4/6 626/4/6 628/4/6
f 624/4/6 625/4/6 628/4/6
f 628/4/6 626/4/6 629/4/6
f 627/4/6 628/4/6 632/4/6
f 629/4/6 630/4/6 632/4/6
f 628/4/6 629/4/6 632/4/6
f 632/4/6 630/4/6 633/4/6
f 631/4/6 632/4/6 635/4/6
f 633/4/6 634/4/6 635/4/6
f 632/4/6 633/4/6 635/4/6
f 635/4/6 634/4/6 636/4/6
f 631/4/6 635/4/6 637/4/6
f 636/4/6 634/4/6 638/4/6
f 631/4/6 637/4/6 639/4/6
f 637/4/6 638/4/6 639/4/6
f 639/4/6 638/4/6 640/4/6
f 638/4/6 634/4/6 641/4/6
f 640/4/6 638/4/6 641/4/6
f 641/4/6 634/4/6 642/4/6
f 640/4/6 641/4/6 643/4/6
f 643/4/6 641/4/6 644/4/6
f 644/4/6 641/4/6 645/4/6
f 645/4/6 641/4/6 646/4/6
f 644/4/6 645/4/6 647/4/6
f 647/4/6 645/4/6 648/4/6
f 648/4/6 645/4/6 649/4/6
f 649/4/6 645/4/6 650/4/6
f 648/4/6 649/4/6 651/4/6
f 651/4/6 649/4/6 652/4/6
f 652/4/6 649/4/6 653/4/6
f 653/4/6 649/4/6 654/4/6
f 652/4/6 653/4/6 655/4/6
f 655/4/6 653/4/6 656/4/6
f 656/4/6 653/4/6 657/4/6
f 657/4/6 653/4/6 658/4/6
f 656/4/6 657/4/6 659/4/6
f 659/4/6 657/4/6 660/4/6
f 660/4/6 657/4/6 661/4/6
f 661/4/6 657/4/6 662/4/6
f 660/4/6 661/4/6 663/4/6
f 663/4/6 661/4/6 664/4/6
f 665/2/6 666/2/6 667/2/6
f 667/2/6 666/2/6 668/2/6
f 665/2/6 667/2/6 669/2/6
f 668/2/6 666/2/6 670/2/6
f 665/2/6 669/2/6 671/2/6
f 669/2/6 670/2/6 671/2/6
f 670/2/6 666/2/6 672/2/6
f 671/2/6 670/2/6 672/2/6
f 673/2/6 674/2/6 675/2/6
f 675/2/6 674/2/6 676/2/6
f 673/2/6 675/2/6 677/2/6
f 676/2/6 674/2/6 678/2/6
f 673/2/6 677/2/6 679/2/6
f 677/2/6 678/2/6 679/2/6
f 678/2/6 674/2/6 680/2/6
f 679/2/6 678/2/6 680/2/6
f 681/1/6 682/1/6 686/1/6
f 682/3/6 683/3/6 687/3/6
f 684/1/6 685/1/6 691/1/6
f 688/3/6 689/3/6 692/3/6
f 690/3/6 691/3/6 695/3/6
f 692/1/6 693/1/6 696/1/6
f 694/1/6 695/1/6 699/1/6
f 696/1/6 697/1/6 700/1/6
f 698/1/6 699/1/6 703/1/6
f 700/1/6 701/1/6 704/1/6
f 686/1/6 682/1/6 706/1/6
f 682/3/6 687/3/6 706/3/6
f 687/1/6 688/1/6 707/1/6
f 706/3/6 687/3/6 707/3/6
f 688/3/6 692/3/6 708/3/6
f 707/1/6 688/1/6 708/1/6
f 704/1/6 705/1/6 709/1/6
f 708/3/6 692/3/6 709/3/6
f 700/1/6 704/1/6 709/1/6
f 692/1/6 696/1/6 709/1/6
f 696/1/6 700/1/6 709/1/6
f 709/1/6 705/1/6 710/1/6
f 702/1/6 703/1/6 711/1/6
f 703/1/6 699/1/6 711/1/6
f 695/3/6 691/3/6 711/3/6
f 699/1/6 695/1/6 711/1/6
f 691/1/6 685/1/6 712/1/6
f 711/3/6 691/3/6 712/3/6
f 685/3/6 686/3/6 713/3/6
f 712/1/6 685/1/6 713/1/6
f 686/1/6 706/1/6 714/1/6
f 713/3/6 686/3/6 714/3/6
f 706/1/6 707/1/6 714/1/6
f 714/1/6 707/1/6 715/1/6
f 711/1/6 712/1/6 716/1/6
f 702/1/6 711/1/6 716/1/6
f 716/1/6 712/1/6 717/1/6
f 710/1/6 705/1/6 718/1/6
f 718/1/6 705/1/6 719/1/6
f 717/1/6 712/1/6 720/1/6
f 720/1/6 712/1/6 721/1/6
f 710/1/6 718/1/6 722/1/6
f 722/1/6 718/1/6 723/1/6
f 721/1/6 712/1/6 724/1/6
f 724/1/6 712/1/6 725/1/6
f 709/3/6 710/3/6 726/3/6
f 710/1/6 722/1/6 726/1/6
f 726/1/6 722/1/6 727/1/6
f 725/1/6 712/1/6 728/1/6
f 712/3/6 713/3/6 729/3/6
f 728/1/6 712/1/6 729/1/6
f 708/1/6 709/1/6 730/1/6
f 709/3/6 726/3/6 730/3/6
f 730/3/6 726/3/6 731/3/6
f 729/3/6 713/3/6 732/3/6
f 713/1/6 714/1/6 733/1/6
f 732/3/6 713/3/6 733/3/6
f 714/3/6 715/3/6 734/3/6
f 733/1/6 714/1/6 734/1/6
f 715/1/6 707/1/6 735/1/6
f 707/3/6 708/3/6 735/3/6
f 708/1/6 730/1/6 736/1/6
f 735/3/6 708/3/6 736/3/6
f 736/1/6 730/1/6 737/1/6
f 734/3/6 715/3/6 738/3/6
f 715/1/6 735/1/6 739/1/6
f 738/3/6 715/3/6 739/3/6
f 739/1/6 735/1/6 740/1/6
